<?xml version="1.0" standalone="no"?>
<!DOCTYPE svg PUBLIC "-//W3C//DTD SVG 1.1//EN" "http://www.w3.org/Graphics/SVG/1.1/DTD/svg11.dtd">
<svg xmlns="http://www.w3.org/2000/svg" id="Layer_1" viewBox="0 0 482.09 641" width="482.0899963378906" height="641">
  <defs>
    <style>
      .cls-1 {
        stroke-width: 3.05px;
      }

      .cls-1, .cls-2, .cls-3, .cls-4 {
        stroke: #231f20;
      }

      .cls-1, .cls-2, .cls-4 {
        stroke-linecap: round;
        stroke-linejoin: round;
      }

      .cls-2 {
        fill: none;
        stroke-width: 8.99px;
      }

      .cls-5 {
        fill: #fff;
      }

      .cls-3 {
        stroke-miterlimit: 10;
      }

      .cls-3, .cls-4 {
        stroke-width: 3px;
      }

      .cls-6 {
        fill: #fdd967;
      }

      .cls-7 {
        fill: #2b2a54;
      }

      .cls-8 {
        fill: #f4a4c0;
      }
    </style>
  </defs>
  <path class="cls-6" d="M453.83,73.74l-29.93,2.25c-1.94.15-2.99,2.34-1.9,3.94l16.91,24.8c1.1,1.61,3.52,1.42,4.36-.33l13.02-27.04c.84-1.75-.53-3.76-2.47-3.61Z"/>
  <path class="cls-6" d="M293.23,1.74l-9.35,28.52c-.61,1.85,1.02,3.66,2.92,3.26l29.37-6.16c1.9-.4,2.66-2.71,1.36-4.16L297.52.84c-1.3-1.45-3.68-.95-4.28.9Z"/>
  <path class="cls-5" d="M141.89,227.05C66.81,105.05,18.32,151.97,18.32,151.97c-54.75,65.7,71.95,150.16,71.95,150.16l51.62-75.08Z"/>
  <path class="cls-5" d="M321.32,388.6c6.24-.53,164.03,14.56,160.06-72.96,0,0,3.63-39.73-69.21-30.63l-72.83,9.1-18.02,94.49Z"/>
  <path class="cls-5" d="M88.71,254.95s39.1-79.77,139.21-43.8c100.11,35.98,122.59,33.73,120.44,80.95-2.15,47.22-6.26,274.13-120.44,244.41-114.19-29.72-211.17-36.76-139.21-271.78"/>
  <path class="cls-5" d="M74.17,431.32c-50.66,99.13-15.66,151.54-15.66,151.54,46.37,58,66.46-98.07,66.46-98.07l-50.8-53.47Z"/>
  <path class="cls-5" d="M217.69,473.19c-50.66,99.13-15.66,151.54-15.66,151.54,46.37,58,66.46-98.07,66.46-98.07l-50.8-53.47Z"/>
  <path class="cls-5" d="M242.9,236.68c194.71,83.23,186.35-26.62,186.35-26.62,0,0,78.27-96.89-52.37-170.55C246.26-34.14,166.53,108.16,166.53,108.16c0,0-41.33-2.56-41.55,44.28-.22,46.83,117.93,84.24,117.93,84.24Z"/>
  <path class="cls-8" d="M166.53,108.16s-31.28-4.25-40.35,31.76c-8.41,33.4,25.92,52.7,25.92,52.7,0,0,56.77,43.55,187.19,73.56,18.61,4.28,5.64-53.21-1.43-80.28-2.25-8.6-8.26-15.71-16.38-19.34-36.27-16.18-139.23-61.25-154.95-58.41Z"/>
  <path class="cls-2" d="M236.86,76.63s42.31-23.46,51.88,17.6"/>
  <path class="cls-2" d="M352.3,105.57s47.96-6.35,41.84,35.37"/>
  <circle class="cls-3" cx="176.5" cy="123.08" r="7.63"/>
  <circle class="cls-3" cx="288.74" cy="165.79" r="7.63"/>
  <path class="cls-4" d="M401.39,286.35c8.18-5.02,34.3-4.47,45.48-1.72,11.18,2.75,30.37,5.96,33.36,22.77.75,4.21.15,16.03.07,20.3-.36,20.46-26.81,42.65-46.16,49.34-4.33-27.5-19.32-64.36-29.81-90.14"/>
  <path class="cls-1" d="M10.63,219.92c-4.26-10.09-13.01-30.27-7.16-43.22,3.81-8.42,11.78-23.94,19.6-29.12,7.02-4.65,18.87-4.35,24.05-4.48,7.24-.18,21.61,4.69,27.38,8.94-21.82,16.3-47.98,46.04-63.87,67.87"/>
  <path d="M55.75,566.99c11.26,3.47,22.69,6.4,34.22,8.8,1.93.4,3.87.79,5.68,1.56.36.15.75.36.86.73.09.28,0,.58-.11.85-2.52,7.08-8.99,12.59-16.38,13.96-7.39,1.37-15.4-1.47-20.29-7.17-2.98-3.48-4.77-7.79-6.48-12.04-.49-1.22-.99-2.49-.95-3.81.04-1.32.77-2.71,2.03-3.1"/>
  <path class="cls-4" d="M54.56,571.32c6.73,2.06,13.52,3.95,20.35,5.65,3.35.83,6.71,1.61,10.08,2.35,2.8.61,6.38.82,8.92,2.2l-1.61-1.61.34.45-.61-2.27c-.03-.74-.07.08-.22.37-.25.47-.47.96-.74,1.43-.5.88-1.04,1.73-1.69,2.5-1.26,1.52-2.77,2.84-4.45,3.87-3.56,2.17-7.79,3.04-11.9,2.18s-7.96-3.05-10.56-6.47c-1.6-2.11-2.79-4.59-3.84-7.01-.46-1.05-.92-2.12-1.31-3.2.01.04-.56-1.9-.5-1.88.74.26-1.8,1.5-.2.78,2.22-.99,2.74-4.22,1.61-6.15-1.34-2.28-3.93-2.61-6.15-1.61-4.76,2.12-4.78,7.85-3.15,11.99,1.63,4.13,3.34,8.33,5.98,11.93,4.89,6.65,12.57,10.71,20.85,10.92,7.75.2,15.5-3.48,20.38-9.48,2.28-2.8,5.77-7.51,4.71-11.36-1.28-4.67-8.31-5.13-12.21-5.97-10.68-2.3-21.25-5.07-31.69-8.27-5.55-1.7-7.92,6.98-2.39,8.67h0Z"/>
  <path d="M199.56,609.83c12.31,3.12,24.97,4.9,37.66,5.3,1.73.05,3.97.49,4.24,2.2.15.93-.41,1.81-.94,2.59-2.8,4.1-5.66,8.28-9.6,11.3-3.94,3.02-9.2,4.76-13.95,3.3-3.61-1.1-6.45-3.85-8.97-6.65-2.42-2.67-4.69-5.48-6.8-8.4-1.59-2.2-3.14-5.12-1.81-7.49"/>
  <path class="cls-4" d="M198.37,614.16c6.56,1.65,13.19,2.93,19.89,3.84,3.48.47,6.97.87,10.47,1.15,1.62.13,3.23.24,4.85.32.81.04,1.62.08,2.43.11.31.01,1.87.09,1.5.03.18.03.56.21.73.18.54-.1-.32-.12-.56-.41l-.32-1.17c-.02-1.23-.2-1.52-.51-.86-.2.12-.46.69-.6.89-.87,1.28-1.74,2.55-2.67,3.78-1.63,2.17-3.52,4.34-5.74,5.92-4.14,2.94-8.98,3.62-13.08.29-2.58-2.09-4.75-4.79-6.84-7.34-1.05-1.29-2.08-2.6-3.03-3.96-.46-.66-.97-1.36-1.28-2.11-.23-.57-.01-1.26-.34-.55,1.01-2.21.63-4.84-1.61-6.15-1.93-1.13-5.14-.61-6.15,1.61-2.02,4.43-.71,8.54,2.04,12.34,2.45,3.39,5.1,6.68,7.96,9.74,5.6,6,13.05,9.58,21.25,6.7,7.88-2.77,12.96-9.31,17.46-16.01,2.78-4.13,2.02-9.23-2.91-11.11-3.45-1.32-7.73-.85-11.37-1.12-9.86-.72-19.6-2.36-29.18-4.76-5.62-1.41-8.01,7.26-2.39,8.67h0Z"/>
  <path class="cls-4" d="M73.93,352.73c17.04,2.08,32.4,14.52,37.96,30.76,3.48,10.13,4.48,22.93,13.98,27.88,2.6,1.36,5.6,1.92,8.03,3.56,4.17,2.83,5.76,8.25,5.97,13.29.2,5.04-.67,10.1-.08,15.11.84,7.05,4.5,13.41,6.61,20.19,2.11,6.78,2.29,15.06-2.76,20.04-5.04,4.97-13.64,4.6-19.71.94-6.06-3.66-10.11-9.85-13.62-16-7.99-13.97-14.68-29.26-26.78-39.87-3.06-2.68-6.49-5.09-8.67-8.54-2.21-3.5-2.9-7.71-3.45-11.81-2.48-18.62-2.9-37.51-1.26-56.22"/>
  <path class="cls-4" d="M223.88,346.29c-3.88,7.46-1.45,17.59,5.38,22.48,7.07,5.06,18.43,5.68,21.17,13.92.88,2.64.56,5.51.79,8.28.83,10.29,8.99,18.76,10.44,28.98,2.38,16.68-13.51,32.98-8.3,49.01,2.35,7.23,8.75,12.59,15.81,15.39,7.07,2.8,14.8,3.36,22.39,3.59,2.75.08,5.61.11,8.13-1.01,2.67-1.19,4.63-3.51,6.49-5.77,5.27-6.41,10.5-12.92,14.35-20.26,8.02-15.35,9.41-33.18,10.65-50.45,1.07-14.98.64-33.08-12.15-40.95-3.88-2.38-8.41-3.42-12.85-4.42-26.8-6.02-53.61-12.04-80.41-18.06"/>
  <path class="cls-4" d="M95.17,183.01c-6.07,4.39-7.16,13-6.43,20.46,1.3,13.17,6.72,25.9,15.31,35.97,2.91,3.41,6.18,6.53,8.89,10.1,4.58,6.03,7.44,13.16,11.34,19.65,2.33,3.88,5.1,7.59,8.75,10.26,6.18,4.53,16.8,4.48,19.79-2.57,2.08-4.92-.54-10.4-2.42-15.41-4.07-10.84-4.63-22.97-1.57-34.15.79-2.88,1.82-5.79,1.56-8.77s-2.3-6.07-5.27-6.35c-4.06-.38-6.93,4.31-10.96,4.94-5.65.87-8.91-5.95-11.22-11.18-4.79-10.87-13.51-19.97-24.17-25.22"/>
  <path d="M262.65,535.54c-3.84-.88-8.12.66-10.52,3.78-1.11,1.44-1.81,3.15-2.77,4.69-2.06,3.35-5.31,5.95-9.04,7.23-4.41,1.51-9.77,1.41-12.86,4.9-1.59,1.79-2.28,4.28-3.99,5.96-.35.35-.76.67-.97,1.12-.73,1.58,1.35,3.19,1.18,4.92-.11,1.18-1.23,2.02-1.56,3.16-.45,1.56.68,3.11,1.87,4.21,4.37,4.03,10.53,6.04,14.07,10.82,1.35,1.82,2.23,3.95,3.48,5.85s3.02,3.64,5.26,4.02c.5.09,1.05.09,1.49-.16.43-.25.7-.71.93-1.15,2.42-4.73,2.64-10.24,3.73-15.44,1.4-6.68,4.27-12.99,5.57-19.69.97-4.98,1.07-10.16,2.85-14.91,1.14-3.05,2.95-6.47,1.38-9.32"/>
  <path class="cls-4" d="M263.84,531.2c-5.98-1.1-11.95.83-15.6,5.85-1.56,2.15-2.44,4.7-4.28,6.65-2.04,2.15-4.55,3.24-7.39,3.92-6.04,1.44-11.16,2.77-14.49,8.48-1.26,2.15-3.55,4.13-4.06,6.59-.31,1.5,0,2.92.59,4.3l.23.54c.36,1.05.52.92.47-.38-.36.63-.76,1.19-1.06,1.86-2.88,6.64,4.11,11.27,8.92,14.3,2.29,1.44,4.75,2.8,6.59,4.83,1.98,2.19,2.97,5.1,4.75,7.45,3.48,4.58,10.97,7.86,14.6,1.55,3.39-5.89,3.21-13.24,4.94-19.65,2-7.42,4.6-14.38,5.65-22.04.54-3.93,1.32-7.57,2.74-11.28,1.46-3.82,1.83-7.1.2-10.92-.96-2.25-4.23-2.71-6.15-1.61-2.32,1.32-2.56,3.93-1.61,6.15.49,1.15-1.09,3.92-1.48,4.93-.63,1.67-1.16,3.34-1.53,5.09-.82,3.9-1.04,7.9-1.89,11.8-1.73,7.92-4.88,15.32-6.18,23.37-.31,1.93-.62,3.86-1.1,5.75-.22.85-.45,1.7-.77,2.52-.15.47-.34.92-.58,1.35,1.88-.3,2.42-.66,1.63-1.1-.13-.33-.94-.82-1.21-1.14-.52-.64-.92-1.42-1.33-2.13-.91-1.59-1.73-3.17-2.83-4.63-2.06-2.73-4.75-4.77-7.61-6.61-1.48-.95-7.56-3.75-7.37-5.7-.2.76-.41,1.51-.61,2.27.79-1.86,2.13-3.28,2.17-5.42.04-2.02-1.22-3.54-1.5-5.44v2.39c-.03.14,1.47-1.62,1.79-2.11.5-.75.9-1.56,1.36-2.34,1-1.7,2-2.51,3.91-3.12,3.82-1.21,7.74-1.55,11.34-3.48,3.63-1.95,6.56-4.99,8.61-8.54,1.77-3.06,3.55-6.39,7.75-5.62,5.66,1.04,8.08-7.63,2.39-8.67h0Z"/>
  <path class="cls-4" d="M308.39,278.36c-2.6,1.29-2.3,5.27-.57,7.6s4.37,3.91,5.87,6.39c3.72,6.15-1.05,14.97,2.88,20.99,3.48,5.34,12.18,4.75,16.67.23s5.62-11.37,5.62-17.74c0-5.19-.74-10.71-4.1-14.67-5.35-6.31-14.93-6.23-23.18-5.64"/>
  <path class="cls-4" d="M306.12,274.48c-4.72,2.76-5.11,9.01-2.45,13.37,1.2,1.97,2.99,3.44,4.62,5.03,1.42,1.39,2.17,2.72,2.34,4.23.52,4.51-.66,8.99.15,13.52.86,4.82,4.12,8.67,8.75,10.26,4.08,1.4,8.67.77,12.51-1.05,4.48-2.12,7.44-6.29,9.2-10.79s2.16-9.18,2.1-13.82c-.06-5.09-.83-10.55-3.65-14.91-6.14-9.47-17.96-10.01-28.13-9.29-2.42.17-4.5,1.94-4.5,4.5,0,2.3,2.06,4.67,4.5,4.5,3.58-.25,7.21-.44,10.78-.03,2.55.29,5.86,1.28,7.73,2.84,5.04,4.21,4.87,13,3.88,18.8-.58,3.37-1.67,6.49-4.07,8.92-.51.52-2.04,1.4-2.63,1.59-1.61.51-2.06.64-3.88.47.71.07-.97-.24-1.24-.33-.74-.24.82.49-.35-.15-.26-.14-.52-.29-.75-.45.62.44-.95-1.15-.58-.61-.5-.73-.56-.93-.79-1.81-.32-1.22-.3-2.56-.24-4.14.07-1.86.26-3.71.28-5.57.07-4.82-1.22-9.13-4.65-12.63-1.24-1.27-3.22-2.73-3.86-4.02.07.15.26.72-.09-.24-.46-1.27.06.63-.14-.66v-.46c-.04.38-.03.42.04.11.41-.38-.25.52-.36.59,5-2.92.48-10.69-4.54-7.77h0Z"/>
  <path class="cls-7" d="M54.91,545.97c5.05,2.42,4.81-10.34,4.84-15.93s-3.07-11.63-8.46-13.13c0,0-3.19,25.8,3.63,29.06Z"/>
  <path class="cls-4" d="M52.64,549.86c2.19.97,4.5,1.33,6.67.03,1.81-1.08,2.86-2.9,3.54-4.84,1.16-3.26,1.26-6.97,1.35-10.4.09-3.81.23-7.74-1.1-11.37-1.85-5.01-5.39-9.14-10.62-10.71-3.08-.93-5.35,1.56-5.69,4.34-.38,3.11-.59,6.25-.69,9.37-.18,5.39-.19,11.21,1.42,16.4.87,2.8,2.39,5.78,5.13,7.17,2.09,1.06,4.97.62,6.15-1.61,1.08-2.05.63-5.01-1.61-6.15-.05-.02-.41-.26-.43-.24-.01,0-.81-.57.18.15.66.48.25.22.13.07-.09-.12-.24-.3-.36-.39-.26-.2.43.5.42.54.01-.05-.19-.27-.21-.32-.15-.27-.72-1.51-.44-.75s0-.01-.06-.19c-.09-.26-.18-.52-.26-.78-.33-1.08-.54-2.18-.72-3.29-.12-.71-.23-.39,0,.09-.12-.23-.08-.73-.11-.99-.06-.63-.11-1.26-.16-1.9-.3-4.7-.1-9.43.3-14.12.09-1.02.18-2.05.31-3.07l-5.69,4.34c.29.09,1.12.43.4.09.41.2.8.42,1.19.66.16.1.32.21.48.33-.35-.27-.4-.3-.16-.09.33.31.64.64.97.96.64.64-.26-.51.27.33.21.34.44.67.63,1.02s.37.71.55,1.07c-.4-.83.11.33.15.43.26.78.44,1.56.61,2.36.22,1.04.03-.56.04.41,0,.44.04.88.04,1.32,0,1.18,0,2.36-.02,3.54-.02,1.32-.06,2.63-.15,3.94-.05.71-.16,1.42-.19,2.13-.02.43.18-.99-.01.05-.06.34-.12.69-.19,1.03-.11.54-.26,1.06-.42,1.58-.28.94-.1-.19.1-.18,0,0-.3.54-.31.57-.29.7.7-.8.22-.31-.51.53.94-.64.35-.3,1.06-.61,1.61-.53,2.55-.11-2.14-.95-4.93-.7-6.15,1.61-1.03,1.96-.68,5.13,1.61,6.15Z"/>
  <path d="M350.71,365.64c4.88-7.45,13.14-13,19.41-19.35,7.41-7.51,13.64-10.68,24.13-7.17,4.58,1.53,18.84,8.03,15.69,15.36-2.24,5.22-20.5,4.9-25.82,5.27-9.77.68-20.23,2.75-29.3,6.48"/>
  <path class="cls-4" d="M354.59,367.91c2.8-4.13,6.56-7.5,10.28-10.78,3.88-3.41,7.51-7.09,11.4-10.48,2.78-2.43,6.06-4.39,9.84-4.45,3.46-.06,7.12,1.14,9.99,2.49s6.16,3.02,8.44,5.46c.71.76,1.17,1.89,1.37,2.29-.04-.07-.39.26.11-.08.46-.31-.44,0,0,.01.33.01-.4.26-.63.36-5.05,2.32-12.61,2.17-18.56,2.39-11.3.42-22.72,2.54-33.23,6.77-2.24.9-3.85,3-3.14,5.53.6,2.13,3.26,4.06,5.53,3.14,10.57-4.26,21.68-6.09,33.02-6.53,4.35-.17,8.69-.43,12.99-1.13,3.61-.58,7.71-1.53,10.37-4.22,7.76-7.84-2.9-17.12-9.47-20.63-8.47-4.52-18.34-6.92-27.2-2.01-5.49,3.04-9.65,8.09-14.31,12.19-5.3,4.67-10.6,9.24-14.58,15.13-3.25,4.81,4.54,9.31,7.77,4.54h0Z"/>
  <path class="cls-5" d="M291.88,516.88c4.76-7.34,11.8-18.26,22.14-16.04,4.79,1.03,9.34,3.49,14,4.98,5.25,1.68,10.6,2.92,16.06,3.65,18.66,2.5,39.23-2.38,51.26-17.81,3.52-4.51-2.8-10.92-6.36-6.36-13.06,16.74-35.47,18.32-54.62,13.03-9.5-2.62-18.98-8.95-29.09-5.8-9.83,3.06-15.84,11.57-21.17,19.81-3.16,4.87,4.63,9.39,7.77,4.54h0Z"/>
  <path class="cls-4" d="M393.57,482.68c-5.42-4.78-6.19-13.93-1.65-19.55,1.02-1.27,2.28-2.36,3.75-3.07,1.2-.58,2.51-.88,3.81-1.18,3.14-.72,6.28-1.44,9.42-2.17.42-.1.91-.18,1.24.09.34.27.37.76.38,1.19.08,5.4.16,10.81-.2,16.19-.19,2.81-.55,5.78-2.26,8.02-1.13,1.48-2.75,2.5-4.33,3.48-.7.44-1.42.88-2.22,1.08-2.29.56-4.55-1-6.22-2.67"/>
  <path class="cls-4" d="M396.75,479.5c-.49-.45-.96-.92-1.39-1.43.59.71-.17-.28-.23-.37-.14-.22-.28-.45-.41-.68-.19-.35-.37-.7-.54-1.06.27.59.05.12-.06-.22-.2-.64-.38-1.27-.52-1.92-.09-.39-.13-.85-.06-.19-.04-.33-.06-.66-.08-1-.03-.66.1-1.35.04-2-.05-.5-.16.64.02-.19.08-.39.16-.78.26-1.17.07-.26.14-.51.22-.76.04-.11.53-1.27.12-.4.28-.61.63-1.16.96-1.74.41-.73-.23.22.16-.24.26-.31.54-.61.83-.9.1-.1.86-.75.66-.6s.65-.39.76-.45c1.13-.67-.19.02.51-.24.39-.14.79-.25,1.19-.36,1.85-.49,3.74-.88,5.61-1.31.92-.21,1.85-.42,2.77-.64.46-.11.92-.21,1.39-.32.24-.06,1.69-.16.78-.17-.76-.2-1.51-.41-2.27-.61l.38.16-1.61-1.61c-.3-.4-.13-1.67-.23-.5-.04.47.01.97.02,1.45.01.77.02,1.54.03,2.31.01,1.64.02,3.28,0,4.92-.02,1.64-.06,3.28-.14,4.91-.04.83-.08,1.66-.15,2.49-.02.32-.05.63-.08.95l-.05.47c.05-.33.05-.34,0-.02-.11.62-.24,1.23-.41,1.84-.02.08-.29.86-.16.56.15-.36-.33.61-.38.71-.23.44-.29.43-.84.98-.38.38-.68.56-1.32.98-.56.37-1.13.74-1.71,1.07-1.55.89.05-.12.07.27,0-.01-.81-.22-.88-.25.44.19-.06-.09-.2-.18-1.25-.84.21.24-.46-.31-.31-.25-.6-.54-.88-.82-1.74-1.69-4.63-1.73-6.36,0s-1.75,4.66,0,6.36c2.79,2.72,6.57,4.89,10.59,3.82,3.53-.93,7.32-3.87,9.37-6.82,2-2.87,2.48-6.46,2.73-9.87.26-3.64.3-7.29.28-10.93-.02-4.07.8-10.52-4.72-11.26-1.97-.27-4.07.48-5.98.92s-3.69.85-5.54,1.27c-3.58.83-6.87,2.04-9.45,4.79-2.11,2.24-3.66,5.05-4.37,8.05-1.55,6.58.3,13.98,5.38,18.59,1.8,1.63,4.59,1.77,6.36,0,1.66-1.66,1.8-4.72,0-6.36h0Z"/>
  <path class="cls-8" d="M202.05,386.54c-14.88-3.48-31,3.44-40.82,15.15-9.81,11.71-13.87,27.45-13.74,42.73.04,4.96.51,9.97,2.11,14.66,3.68,10.79,13.11,18.88,23.57,23.42,10.46,4.54,21.97,5.99,33.32,7.07,9.75.93,21.19.95,27.33-6.68,3.67-4.56,4.41-10.78,4.65-16.63.8-19.3-2.19-38.75-8.77-56.91-2.35-6.48-5.26-12.96-10.18-17.78-4.92-4.82-12.26-7.69-18.85-5.7"/>
</svg>