<?xml version="1.0" encoding="utf-8"?>
<!-- Generator: Adobe Adobe Illustrator 24.2.0, SVG Export Plug-In . SVG Version: 6.00 Build 0)  -->
<svg version="1.1" xmlns="http://www.w3.org/2000/svg" xmlns:xlink="http://www.w3.org/1999/xlink" x="0px" y="0px" width="4000px"
	 height="4000px" viewBox="0 0 4000 4000" style="enable-background:new 0 0 4000 4000;" xml:space="preserve">
<style type="text/css">
	.st0{display:none;}
	.st1{display:inline;}
	.st2{fill:#315EB0;}
	.st3{display:inline;fill:#FFFFFF;}
	.st4{fill:#FFFFFF;}
</style>
<g id="Layer_1" class="st0">
	<g id="Layer_2" class="st1">
		<polyline class="st2" points="4207.29,4114.83 4278.62,-84.39 -370.29,-251.86 -199.72,4245.09 		"/>
	</g>
	<polyline transform="matrix(0.9766 0 0 0.9766 0 0)" class="st3" points="2628.15,2309.03 2627.68,2361.92 2483.78,2272.09 
		2567.87,2273.47 	"/>
</g>
<g id="R_-_hole">
</g>
<g id="R" class="st0">
	<g class="st1">
		<g>
			<path class="st4" d="M1790.78,2208.66c0-9.2-8.63-10.31-12-10.59c-3.37-0.28-32.11-0.36-36.13-0.36
				c-4.02,0-11.02,3.96-11.02,12.41c0,8.45,1.33,47.75-33.93,47.75s-43.61-59.34-44.56-70.05c-1.69-19.18-5.77-123.66-7.45-142.67
				s-9.9-85.94-41.82-126.09c-0.49-0.61,10.81-9.58,10.81-9.58s51.21-37.3,73.27-85.04c19.95-43.18,26.59-74.01,27.85-102.53
				c1.26-28.52,0.05-480.47,0.05-486.65s-2.72-103.38-36.58-147.23s-56.18-56.64-72.19-68.25s-45.11-21.4-56.31-21.4
				s-403.69,0.21-404.77,0.17c-1.08-0.05-12.01,2.66-12.01,11.56s0.01,399.6,0.06,400.6c0.04,1,1.31,12.8,16.84,12.8
				c15.53,0,80.24,0.1,80.92,0.1l0.6,822.15l-87.09-0.16c0,0-11.23-0.09-11.23,12.69s0.25,405.99,0.25,405.99
				s0.82,11.32,10.78,11.32c9.97,0,307.85-0.57,307.85-0.57s12.36,1.61,12.36-20.11s-0.26-399.17-0.26-399.17
				s-0.3-11.17-10.36-11.17c-10.06,0-85.33,0.45-85.33,0.45l1.1-285.36l58.7-1.13c0,0,57.83,0.2,72.57,56.01
				c6.3,23.85,9.45,60.01,9.45,109.18c0,49.44-1.89,140.99-1.89,140.99s0.79,171.85,6.27,228.94
				c5.47,57.08,23.96,135.05,34.79,149.38s52.82,68.1,145.45,27.47c35.52-15.58,50.75-38.98,50.75-38.98s28.8-33.93,36.32-82.47
				c5.17-33.38,8.15-90.06,8.15-125.72C1791.03,2387.67,1790.78,2217.86,1790.78,2208.66z M1581.67,1690.57
				c0,129.1-94.29,130.62-94.29,130.62l-116.83,1.38l0.92-397.85c0,0,31.56-1.38,115.91-1.38c84.35,0,94.75,93.17,94.75,113.15
				C1582.13,1556.46,1581.67,1561.46,1581.67,1690.57z"/>
		</g>
	</g>
</g>
<g id="R_copy">
</g>
<g id="H" class="st0">
	<path class="st3" d="M2213.56,1336.59v400.27c0,9.97,8.01,18.1,17.98,18.24l40.3,0.58c9.98,0.14,18,8.29,17.98,18.27l-1.16,780.53
		c-0.01,10-8.07,18.12-18.07,18.22l-39.63,0.38c-10.02,0.09-18.09,8.26-18.07,18.28l0.74,392.59c0.02,10.07,8.19,18.22,18.26,18.21
		l250.53-0.21c10.06-0.01,18.22-8.16,18.23-18.22l0.5-392.49c0.01-10.09-8.16-18.27-18.24-18.27h-39.17
		c-10.1,0-18.27-8.2-18.24-18.29l0.77-286.88c0.03-10.04,8.16-18.17,18.2-18.2l191.67-0.49c10.09-0.03,18.28,8.14,18.29,18.23
		l0.22,286.39c0.01,9.99-8.02,18.13-18.01,18.26l-40.32,0.52c-9.98,0.13-18,8.25-18.01,18.23l-0.27,393.77
		c-0.01,10.08,8.16,18.26,18.24,18.26l251.56,0.04c10.06,0,18.22-8.14,18.25-18.2l0.91-393.68c0.02-10.07-8.12-18.25-18.19-18.29
		l-40.47-0.13c-10.06-0.03-18.19-8.2-18.19-18.26l0.48-780.13c0.01-10.12,8.25-18.3,18.37-18.23l38.35,0.25
		c10.06,0.07,18.27-8.02,18.36-18.08l0.44-48.68c0.03-3.5-0.94-6.92-2.8-9.88c-17.1-27.14-105.97-168.06-126.38-196.99
		c-20.12-28.51-82.07-136.79-95.1-160.55c-2.53-4.62-0.58-4.87-7.8-4.55l-40.45-0.08c-10.09-0.02-18.28,8.16-18.28,18.25
		l0.05,401.97c0,10.07,8.16,18.23,18.22,18.24l40.44,0.04c10.07,0.01,18.23,8.18,18.22,18.25l-0.11,328.84
		c0,10.08-8.17,18.24-18.25,18.24l-188.79-0.04c-10.08,0-18.24-8.17-18.24-18.25l0.03-328.67c0-10.06,8.15-18.23,18.21-18.24
		l40.13-0.07c10.06-0.02,18.2-8.17,18.21-18.23l0.39-401.81c0.01-10.1-8.19-18.29-18.3-18.26l-253.8,0.76
		C2221.69,1318.38,2213.56,1326.53,2213.56,1336.59z"/>
</g>
<g id="H_copy">
</g>
<g id="Hat_1_">
	<path class="st4" d="M2836.28,1640.17c0,0,190.25,299.16,208.34,317.25c20.62,20.62,24.48,24.86,34.98,29.33
		c12.55,5.35,33.19,5.95,44.39,5.95c105.69,0,187.93-66.5,232.41-119.75c175.48-210.11,5.85-471.49,5.85-471.49
		s2.23,22.6-16.36,51.83c-40.98,64.44-101.31,140.27-134.77,184.53c-30.34,40.13-50.14,43.9-75.79,48.77
		c-39.8,7.56-84.97-10.57-113.52-28.67c-30.39-19.26-81.8-58.8-110.72-91.94c-60.12-68.89-86.75-119.05-110.72-163.77
		c-14.34-26.76-31.24-70.42-37.3-97.76c-2.63-11.85-3.45-36.83-0.33-48.56c3.04-11.42,13.7-33.27,21.66-42
		c34.94-38.35,117.14-105,117.14-105s-208.87-46.29-284.82-60.86c-20.23-3.88-70.53-18.52-84.35-3.25
		c-8.33,9.21,1.77,37.93,6.46,49.49c23.1,57,69.62,163.68,99.9,224.81c14.96,30.19,68.12,122.3,68.12,122.3
		s-40.68-77.33-70.1-141.89c-19-41.69-72.52-168.29-72.52-168.29l250.58,361.14l157.02,251.02l45.26,106.68l16.52,55.68l18.69,46.63
		"/>
	<g id="Hat_holes_1_">
		<g>
			<g>
				<path class="st4" d="M3274.27,1206.18c-21.9-33.87-76.94-92.05-109.53-118.46c-41.54-33.67-147.7-60.01-168.77-47.54
					c-32.12,19.02-52.71,45.86-58.49,67.41c-13.65,50.95-8.6,110.52,29.04,181.96c17.49,33.19,69.93,77.72,117.65,93.13
					c30.38,9.81,88.2,4.02,126.63,16.43c15.63,5.05,38.47,13.34,55.16,35.7c4,5.36-3.44,24.75-5.36,41.53
					c-2.15,18.81,0.94,33.74-1.12,47.69c-1.87,12.59-8.08,29.3-14.94,43.18c-3.75,7.58-11.71,21.63-22.63,25.13
					c-39.53,12.69-71.35-5.5-80.63-9.49c-18.13-7.81-69.31-40.49-69.31-40.49s8.22-17.27-7.52-54.2
					c-31.6-74.13-126.59-162.7-155.45-237.82c-10.33-26.88-28.27-83.66-28.27-111.67c0-2.65-75.68,55.09-90.55,94.71
					c-11.91,31.71,40.22,132.47,47.64,144.46c20,32.34,52.67,94.34,72.28,122.78c47.52,68.91,70.48,87.54,101.53,109.53
					c46.45,32.89,89.87,43.75,122.17,50.93c28.13,6.26,53.82-6.53,64.79-20.78c20.1-26.12,59.62-78.89,79.71-105.02
					c24.85-32.31,75.87-90.16,75.87-142.97C3354.17,1337.13,3303.42,1251.25,3274.27,1206.18z M3024.46,1152.36
					c-4.5-71.83-23.72-84.6-23.72-84.6s57.35,33.14,80.36,57.8c59.2,63.47,92.39,114.78,102.14,143.83
					c20.04,59.76,44.59,111.82,44.59,111.82S3031.68,1267.58,3024.46,1152.36z M3173.18,1173.41c-3.25-7.82-1.37-24.9-1.37-33.83
					c0-21.32-8.14-36.25-8.14-36.25s62.04,72.44,79.43,99.06c54.79,83.86,70.61,124.85,70.61,124.85s-17.73-22.28-33.6-38.15
					C3252.27,1261.24,3189.46,1212.61,3173.18,1173.41z"/>
			</g>
		</g>
	</g>
</g>
<g id="Star">
	<polygon class="st4" points="1999,1769.06 2046.92,1918.41 2202,1918.41 2076.54,2010.71 2124.46,2160.06 1999,2067.76 
		1873.54,2160.06 1921.46,2010.71 1796,1918.41 1951.08,1918.41 	"/>
</g>
<g id="Ring">
	<path class="st4" d="M1729.72,1801.3c-8.95,21.73-16.75,36.06-16.75,36.06l94.45,50.94l85.84,0.47
		C1893.26,1888.77,1729.89,1800.88,1729.72,1801.3z"/>
	<polyline class="st4" points="2119.5,2013.63 2108.48,2022.18 2122.46,2061.98 2263.99,2142.63 2264.17,2096.37 	"/>
	<path class="st4" d="M1552.76,1708.92c-1.16,16.89-4.21,25.84-12.04,39.36c-0.25,0.43-146.67-72.05-146.67-72.05l-0.22-48.82
		C1393.83,1627.41,1552.79,1708.53,1552.76,1708.92z"/>
	<g>
		<g>
			<g>
				<path class="st4" d="M2590.1,2735.16l276.25,130.63l0.64-274.86c0.02-10.07-8.12-18.25-18.19-18.29l-40.47-0.13
					c-10.06-0.03-18.19-8.2-18.19-18.26l0.48-780.13c0.01-10.12,8.25-18.3,18.37-18.23l38.35,0.25
					c10.06,0.07,18.27-8.02,18.36-18.08l0.44-48.68c0.03-3.5-0.94-6.92-2.8-9.88c-17.1-27.14-105.97-168.06-126.38-196.99
					c-20.12-28.51-82.07-136.79-95.1-160.55c-2.53-4.62-0.58-4.87-7.8-4.55l-40.45-0.08c-10.09-0.02-18.28,8.16-18.28,18.25
					l0.05,401.97c0,10.07,8.16,18.23,18.22,18.24l40.44,0.04c10.07,0.01,18.23,8.18,18.22,18.25l-0.11,328.84
					c0,10.08-8.17,18.24-18.25,18.24l-188.79-0.04c-10.08,0-18.24-8.17-18.24-18.25l0.03-328.67c0-10.06,8.15-18.23,18.21-18.24
					l40.13-0.07c10.06-0.02,18.2-8.17,18.21-18.23l0.39-401.81c0.01-10.1-8.19-18.29-18.3-18.26l-253.8,0.76
					c-10.05,0.03-18.19,8.19-18.19,18.24v400.27c0,9.97,8.01,18.1,17.98,18.24l40.3,0.58c9.98,0.14,18,8.29,17.98,18.27
					l-1.16,780.53c-0.01,10-8.07,18.12-18.07,18.22l-0.27,0c100.07,52.02,220.76,115.04,220.76,115.04l-0.2,115.57
					c0,0-207.82-110.83-277.87-146.52l0.61,327.16c0.02,10.07,8.19,18.22,18.26,18.21l250.53-0.21
					c10.06-0.01,18.22-8.16,18.23-18.22l0.5-392.49c0.01-10.09-8.16-18.27-18.24-18.27h-39.17c-10.1,0-18.27-8.2-18.24-18.29
					l0.77-286.88c0.03-10.04,8.16-18.17,18.2-18.2l191.67-0.49c10.09-0.03,18.28,8.14,18.29,18.23l0.22,286.39
					c0.01,9.99-8.02,18.13-18.01,18.26l-40.32,0.52c-9.98,0.13-18,8.25-18.01,18.23l-0.27,393.77
					c-0.01,10.08,8.16,18.26,18.24,18.26l251.56,0.04c8.77,0,16.09-6.18,17.84-14.43l-275.35-135.52L2590.1,2735.16z"/>
				<path class="st4" d="M2230.95,2573.07l39.36-0.37c-55.49-28.84-104.65-54.31-123.36-63.77
					c-38.71-19.56-105.36-57.32-154.08-83.94c-31.69-17.31-130.98-73.81-201.95-114.29c0.06,46.49,0.12,94.96,0.12,112.4
					c167.17,94.91,361.32,202.78,421.91,233.65c0.02,0.01,0.04,0.02,0.06,0.03l-0.12-65.43
					C2212.86,2581.33,2220.93,2573.17,2230.95,2573.07z"/>
				<path class="st4" d="M1519.19,2266.55l0.54-113.79l131.25,76.68c0,0,9.75,24.09,25.06,32.05c17.42,9.06,38.37,5.53,38.37,5.53
					s32.91,18.83,76.5,43.7c-0.06-49.78-0.13-97.3-0.13-102.04c0-9.2-8.63-10.31-12-10.59c-3.37-0.28-32.11-0.36-36.13-0.36
					c-4.02,0-11.02,3.96-11.02,12.41c0,8.45,1.33,47.75-33.93,47.75s-43.61-59.34-44.56-70.05c-1.69-19.18-5.77-123.66-7.45-142.67
					s-9.9-85.94-41.82-126.09c-0.49-0.61,10.81-9.58,10.81-9.58s51.21-37.3,73.27-85.04c19.95-43.18,26.59-74.01,27.85-102.53
					c1.26-28.52,0.05-480.47,0.05-486.65s-2.72-103.38-36.58-147.23s-56.18-56.64-72.19-68.25s-45.11-21.4-56.31-21.4
					s-403.69,0.21-404.77,0.17c-1.08-0.05-12.01,2.66-12.01,11.56s0.01,399.6,0.06,400.6c0.04,1,1.31,12.8,16.84,12.8
					c15.53,0,80.24,0.1,80.92,0.1l0.4,549.62c34.12,21.71,127.62,80.72,127.62,80.72l0.54,117.33c0,0-93.8-56.71-128.07-77.84
					l0.11,152.33l-87.09-0.16c0,0-11.23-0.09-11.23,12.69s0.25,405.99,0.25,405.99s0.82,11.32,10.78,11.32
					c9.97,0,307.85-0.57,307.85-0.57s12.36,1.61,12.36-20.11s-0.26-399.17-0.26-399.17s-0.3-11.17-10.36-11.17
					c-10.06,0-85.33,0.45-85.33,0.45l1.1-285.36l58.7-1.13c0,0,57.83,0.2,72.57,56.01c6.3,23.85,9.45,60.01,9.45,109.18
					c0,49.44-1.89,140.99-1.89,140.99s0.79,171.85,6.27,228.94c5.47,57.08,23.96,135.05,34.79,149.38s52.82,68.1,145.45,27.47
					c35.52-15.58,50.75-38.98,50.75-38.98s28.8-33.93,36.32-82.47c5.17-33.38,8.15-90.06,8.15-125.72c0-0.07,0-0.15,0-0.22
					c-0.96-0.55-1.93-1.1-2.89-1.64C1642.98,2339.03,1519.19,2266.55,1519.19,2266.55z M1487.38,1821.19l-116.83,1.38l0.92-397.85
					c0,0,31.56-1.38,115.91-1.38c84.35,0,94.75,93.17,94.75,113.15c0,19.98-0.46,24.98-0.46,154.08S1487.38,1821.19,1487.38,1821.19
					z"/>
				<path class="st4" d="M1230.15,1971.9c-60.71-38.66-181.73-116.94-240.91-156.6c-115.6-77.49-266.27-184.75-382.55-287.21
					c-41.88-36.9-160.23-141.26-132.78-179.46c21.27-29.6,179.02,12.34,249.88,35.81c80.96,26.81,192.16,72.3,254.95,99.49
					c56.15,24.32,223.77,99.21,223.77,99.21l0.05-50.6c0,0-109.02-55.6-318.1-148.95c0,0-59.26-26.89-229.3-97.03
					c-139.82-57.68-534.98-219.11-589.21-137.3c-45.92,69.28,118.09,209.07,242.13,310.92c110.87,91.03,344.15,258.65,463.26,338.6
					c112.56,75.55,342.95,221.68,458.83,293.31c0.68,0.42,1.4,0.86,2.13,1.32l-0.09-120.2
					C1231.5,1972.76,1230.8,1972.32,1230.15,1971.9z"/>
				<path class="st4" d="M3826.84,3151.13c-67.46-67.46-192.08-167.72-259.68-219.17c-95.6-72.76-292.47-208.72-392.56-275.18
					c-87.5-58.09-353.83-228.48-353.83-228.48v56.28c0,0,183.5,122.13,243.72,164.15c46.36,32.35,122.08,88.66,181.39,134.86
					c86.15,67.1,265.44,215.66,239.03,261.88c-17.71,30.99-148.38-0.36-206.12-18c-59.72-18.24-166.72-59.01-234.34-86.42
					c-44.74-18.14-177.9-75.16-177.9-75.16l-0.19-0.09l-0.27,118.81c0,1.29-0.15,2.56-0.4,3.77l0.91,0.45
					c0,0,335.69,158.38,467.24,208.66c84.82,32.42,254.21,98.48,341.21,124.48c76.04,22.72,227.08,63.41,258.22,6.83
					C3958.21,3283.45,3863.45,3187.74,3826.84,3151.13z"/>
			</g>
		</g>
	</g>
</g>
<g id="Hat_base">
</g>
<g id="Hat_holes">
</g>
<g id="Hat">
</g>
</svg>
