<?xml version="1.0" encoding="UTF-8"?>
<svg id="Layer_2" data-name="Layer 2" xmlns="http://www.w3.org/2000/svg" xmlns:xlink="http://www.w3.org/1999/xlink" viewBox="0 0 95.29 84.76">
  <defs>
    <style>
      .cls-1 {
        fill: none;
      }

      .cls-2 {
        fill: #b79576;
      }

      .cls-3 {
        clip-path: url(#clippath);
      }
    </style>
    <clipPath id="clippath">
      <rect class="cls-1" x="86.57" y="33.19" width="8.72" height="10.67"/>
    </clipPath>
  </defs>
  <g id="Layer_1-2" data-name="Layer 1">
    <g>
      <path class="cls-2" d="M77.08,73.17c-22.38.78-45.4-15.65-48.97-38.27-1.35-9.59,1.48-20.69,10.03-26.19C51.3.06,70.56,7.64,71.54,24.07c.34,4.81-.77,9.64-2.56,14.06-.05.13-.19.19-.32.14-.12-.05-.18-.18-.14-.3,1.01-2.96,1.79-6.03,2.02-9.15.56-6.09-1.34-12.58-5.96-16.74-9.23-8.51-25.37-6.27-31.46,4.82-10.73,20.47,6.32,44.18,25.66,51.88,5.78,2.44,12.02,3.74,18.3,3.92.14,0,.24.11.23.25,0,.13-.11.23-.23.24Z"/>
      <path class="cls-2" d="M63.5,80.68c-17.43,8.08-36.89,4.68-44.16-14.72-6.38-17.54,2.51-37.69,21.91-40.62.13-.02.26.07.28.2.02.13-.07.25-.19.28-4.17.94-8.19,2.61-11.57,5.21-13.87,10.35-14.14,33.01-2.17,44.91,8.99,9.05,22,9.02,33.43,5.1.53-.18,1.74-.63,2.28-.81.13-.05.27.02.32.15.04.12-.02.26-.13.31Z"/>
      <path class="cls-2" d="M33.84,68.86c-.99-.14-3.06-.44-4-.61-.66-.16-1.97-.46-2.64-.62-.85-.17-3.03-.92-3.9-1.19-8.12-2.95-15.51-9.45-17.41-18.16-3.22-13.91,6.65-27.12,20.45-29.49,3.59-.64,7.26-.64,10.81-.09.14.02.23.15.21.28s-.14.22-.27.21c-3.54-.23-7.1-.08-10.52.74-12.27,2.72-21.09,14.05-19.13,26.68,1.47,8.84,8.24,15.3,16.29,18.72,3.24,1.42,6.69,2.29,10.17,3.06.13.03.21.16.18.29-.03.13-.15.2-.27.19Z"/>
      <path class="cls-2" d="M71.38,46.56c-7.04,4.59-15.58,7.08-24.02,6.54-14.81-.84-29.31-10.36-34.68-24.37-2.28-5.99-2.31-12.98.66-18.73,1.94-3.81,4.95-6.96,8.39-9.34.11-.08.26-.05.34.06.07.1.05.25-.05.33-6.52,5.09-10.55,12.91-9.24,21.24,2.67,16.27,18.83,27.85,34.7,29.17,6.1.53,12.33-.46,18.05-2.69,1.91-.77,3.78-1.65,5.6-2.63.12-.06.27-.02.33.1.06.11.03.26-.08.32Z"/>
      <path class="cls-2" d="M42.99,29.19c13.42-7.79,29.9-4.1,35.99,10.86,5.8,15.85-5.22,28.08-20.19,31.87-3.9,1.02-7.88,1.57-11.9,1.79-.31,0-.37-.43-.05-.48,11.32-1.29,24.28-5.08,29.86-15.87,7.54-15.05-5.7-32.67-22.2-30.93-3.93.28-7.74,1.52-11.3,3.19-.27.15-.51-.28-.23-.43Z"/>
      <path class="cls-2" d="M57,19.54c14.11-7.88,30.87,1.72,31.41,17.78.16,4.83-1.3,9.56-3.65,13.61-.07.12-.22.16-.33.09-.11-.06-.15-.2-.1-.31,1.84-4.24,2.92-8.8,2.57-13.31-.77-11.79-11.24-20.68-23.04-19.14-2.26.25-4.49.88-6.64,1.72-.27.12-.48-.3-.21-.44h0Z"/>
      <path class="cls-2" d="M44.71,6.37C45.53,2.78,48.79-.1,52.53,0c.13,0,.24.11.24.24s-.11.24-.24.24c-.83.01-1.66.17-2.41.49-2.23.92-3.81,3.22-3.92,5.6-.08,1.09-1.7.86-1.48-.21Z"/>
      <path class="cls-2" d="M6.59,38.61C2.12,36.61-.65,31.63.13,26.8c.04-.31.52-.26.48.06-.57,4.41,2.28,8.97,6.55,10.27,1.05.36.46,1.91-.57,1.47Z"/>
      <path class="cls-2" d="M23.56,72.52c-2.8,3.49-9,3.3-11.18-.71-.16-.27.25-.52.42-.25,1.98,3.34,7.46,3.29,9.49.09.58-.91,1.92,0,1.27.88Z"/>
      <g class="cls-3">
        <path class="cls-2" d="M88.24,35.03c.26,4.25,2.02,7.94,6.74,8.17.32.01.31.5-.01.49-5.18.03-7.43-3.85-8.24-8.44-.18-1.05,1.39-1.28,1.51-.21Z"/>
      </g>
      <path class="cls-2" d="M35.56,39.52c3.74-5.54,10.74-9.33,17.51-7.34,6.88,1.78,11.31,8.93,10.62,15.85-.61,10.5-12.26,18.38-22.27,15.31-3.25-.98-6.11-2.95-8.29-5.43-.09-.1-.08-.26.02-.34s.24-.08.33,0c1.17,1.11,2.44,2.11,3.82,2.93,9.97,6.11,23.8-1.03,24.69-12.6.97-10.16-8.93-17.93-18.51-13.88-2.97,1.2-5.49,3.34-7.54,5.8-.19.24-.57-.06-.39-.3Z"/>
      <path class="cls-2" d="M33.58,35.63c.63-16.79,20.15-27.06,34.79-19.49,15.04,7.86,13.94,29.88,2.58,40.47-.23.2-.55-.1-.35-.34,2.56-2.78,4.54-6.05,5.81-9.58,3.96-10.24,1.59-23.74-8.83-29.06-9.9-5.14-23.31-1.51-29.6,7.64-2.17,3.06-3.44,6.68-3.91,10.4-.03.3-.51.27-.48-.04h0Z"/>
      <path class="cls-2" d="M58.51,46.54c-.46,3.99-1.45,7.99-3.58,11.46-4.82,7.89-13.94,9.11-21.9,5.37-7.43-3.51-13.18-10.19-15.73-17.96-3.32-9.75-.57-20.68,5.59-28.69,1.17-1.64,2.52-3.12,3.88-4.58.23-.21.56.07.36.33-5.07,5.94-9.06,13.14-9.68,20.99-1.09,11.62,5.77,23.4,16.28,28.41,10.16,4.79,19.27.97,22.84-9.7.64-1.85,1.1-3.77,1.45-5.71.05-.31.52-.24.48.07Z"/>
      <path class="cls-2" d="M71.2,39.06c4.17,6.88,6.63,15.39,3.96,23.29-2.61,7.95-9.99,13.52-17.9,15.58-18.11,4.65-33.56-6.45-32.51-25.57,0-.14.12-.24.25-.23.14,0,.23.11.24.24.06,1.98.23,3.95.58,5.89,1.01,5.73,3.98,11.27,8.76,14.66,9.58,6.77,23.6,5.44,32.55-1.79,8.75-7.09,9.65-17.83,5.52-27.78-.56-1.38-1.2-2.71-1.86-4.04-.15-.27.27-.52.43-.24Z"/>
    </g>
  </g>
</svg>